<svg width="35" height="35" viewBox="0 0 35 35" fill="none" xmlns="http://www.w3.org/2000/svg">
<path d="M11.8492 27.5277C11.8492 27.6644 11.7125 27.7328 11.5074 27.7328C11.3023 27.8011 11.1656 27.6644 11.1656 27.5277C11.1656 27.391 11.3023 27.2543 11.5074 27.2543C11.7125 27.2543 11.8492 27.391 11.8492 27.5277ZM9.73008 27.1859C9.79844 27.0492 10.0035 26.9808 10.2086 27.0492C10.4137 27.1176 10.482 27.2543 10.482 27.391C10.4137 27.5277 10.2086 27.5961 10.0719 27.5277C9.8668 27.5277 9.73008 27.3226 9.73008 27.1859ZM12.8063 27.1176C12.943 27.0492 13.148 27.1859 13.148 27.3226C13.2164 27.4594 13.0797 27.5277 12.8746 27.5961C12.6695 27.6644 12.4645 27.5961 12.4645 27.4594C12.4645 27.2543 12.6012 27.1176 12.8063 27.1176ZM17.2496 0.867554C26.7516 0.867554 34.4762 8.11365 34.4762 17.5472C34.4762 25.1351 29.8277 31.6293 22.9918 33.8851C22.1031 34.0902 21.7613 33.5433 21.7613 33.0648C21.7613 32.5179 21.8297 29.6469 21.8297 27.391C21.8297 25.7504 21.2828 24.725 20.6676 24.1781C24.4957 23.7679 28.5289 23.2211 28.5289 16.6586C28.5289 14.7445 27.8453 13.8558 26.7516 12.6254C26.8883 12.1469 27.5035 10.3695 26.5465 7.97693C25.1109 7.49841 21.8297 9.82263 21.8297 9.82263C20.4625 9.41248 19.027 9.27576 17.523 9.27576C16.0875 9.27576 14.652 9.41248 13.2848 9.82263C13.2848 9.82263 9.93516 7.56677 8.56797 7.97693C7.61094 10.3695 8.15781 12.1469 8.36289 12.6254C7.26914 13.8558 6.72227 14.7445 6.72227 16.6586C6.72227 23.2211 10.6188 23.7679 14.4469 24.1781C13.9 24.6566 13.4898 25.4086 13.3531 26.5023C12.3277 26.9808 9.8668 27.7328 8.36289 25.0668C7.40586 23.4261 5.69688 23.2894 5.69688 23.2894C4.05625 23.2894 5.62852 24.3832 5.62852 24.3832C6.72227 24.8617 7.47422 26.8441 7.47422 26.8441C8.49961 29.9203 13.2848 28.8949 13.2848 28.8949C13.2848 30.3304 13.2848 32.6547 13.2848 33.1332C13.2848 33.5433 13.0113 34.0902 12.1227 33.9535C5.28672 31.6293 0.569923 25.1351 0.569923 17.5472C0.569923 8.11365 7.81602 0.867554 17.2496 0.867554ZM7.20078 24.4515C7.26914 24.3832 7.40586 24.4515 7.54258 24.5199C7.6793 24.6566 7.6793 24.8617 7.61094 24.9301C7.47422 24.9984 7.3375 24.9301 7.20078 24.8617C7.13242 24.725 7.06406 24.5199 7.20078 24.4515ZM6.44883 23.9047C6.51719 23.8363 6.58555 23.8363 6.72227 23.9047C6.85899 23.973 6.92735 24.0414 6.92735 24.1097C6.85899 24.2465 6.72227 24.2465 6.58555 24.1781C6.44883 24.1097 6.38047 24.0414 6.44883 23.9047ZM8.63633 26.3656C8.77305 26.2289 8.97813 26.2972 9.11485 26.434C9.25156 26.5707 9.25156 26.7758 9.1832 26.8441C9.11485 26.9808 8.90977 26.9125 8.77305 26.7758C8.56797 26.639 8.56797 26.434 8.63633 26.3656ZM7.88438 25.3402C8.0211 25.2719 8.15781 25.3402 8.29453 25.4769C8.36289 25.6136 8.36289 25.8187 8.29453 25.8871C8.15781 25.9554 8.0211 25.8871 7.88438 25.7504C7.74766 25.6136 7.74766 25.4086 7.88438 25.3402Z" fill="#A79AE0"/>
</svg>
