<svg width="31" height="31" viewBox="0 0 31 31" fill="none" xmlns="http://www.w3.org/2000/svg">
<path d="M7.16856 30.8996H0.811134V10.4601H7.16856V30.8996ZM3.95567 7.72574C1.97324 7.72574 0.332619 6.01675 0.332619 3.96597C0.332619 1.98355 1.97324 0.342926 3.95567 0.342926C6.00645 0.342926 7.64707 1.98355 7.64707 3.96597C7.64707 6.01675 6.00645 7.72574 3.95567 7.72574ZM30.8893 30.8996H24.6002V20.9875C24.6002 18.5949 24.5318 15.5871 21.2506 15.5871C17.9693 15.5871 17.4908 18.1164 17.4908 20.7824V30.8996H11.1334V10.4601H17.2174V13.2628H17.2857C18.1744 11.6906 20.2252 9.9816 23.3014 9.9816C29.7271 9.9816 30.9576 14.2199 30.9576 19.6886V30.8996H30.8893Z" fill="#A79AE0"/>
</svg>
