<svg width="36" height="29" viewBox="0 0 36 29" fill="none" xmlns="http://www.w3.org/2000/svg">
<path d="M31.9454 7.61917C31.9454 7.96097 31.9454 8.23441 31.9454 8.5762C31.9454 18.0782 24.7677 28.9473 11.5743 28.9473C7.47276 28.9473 3.71299 27.7852 0.568459 25.7344C1.11533 25.8028 1.66221 25.8711 2.27744 25.8711C5.62705 25.8711 8.70322 24.709 11.1642 22.795C8.01963 22.7266 5.35361 20.6758 4.46494 17.8047C4.94346 17.8731 5.35361 17.9414 5.83213 17.9414C6.44736 17.9414 7.13096 17.8047 7.67783 17.668C4.39658 16.9844 1.93565 14.1133 1.93565 10.627V10.5586C2.89268 11.1055 4.05479 11.3789 5.2169 11.4473C3.23447 10.1485 2.00401 7.96097 2.00401 5.50003C2.00401 4.13284 2.3458 2.90237 2.96104 1.87698C6.51572 6.18362 11.8478 9.05472 17.795 9.39651C17.6583 8.84964 17.5899 8.30276 17.5899 7.75589C17.5899 3.79105 20.8028 0.578156 24.7677 0.578156C26.8185 0.578156 28.6642 1.39847 30.0313 2.83401C31.6036 2.49222 33.1759 1.87698 34.5431 1.05667C33.9962 2.76566 32.9024 4.13284 31.3985 5.02151C32.8341 4.8848 34.2696 4.47464 35.5001 3.92776C34.5431 5.36331 33.3126 6.59378 31.9454 7.61917Z" fill="#A79AE0"/>
</svg>
