<svg width="7" height="31" viewBox="0 0 7 31" fill="none" xmlns="http://www.w3.org/2000/svg">
<path d="M6.29738 27.1476C6.29738 28.0752 5.9791 28.9648 5.41256 29.6207C4.84603 30.2766 4.07764 30.6451 3.27643 30.6451C2.47523 30.6451 1.70684 30.2766 1.14031 29.6207C0.57377 28.9648 0.255493 28.0752 0.255493 27.1476C0.255493 26.22 0.57377 25.3304 1.14031 24.6745C1.70684 24.0186 2.47523 23.6501 3.27643 23.6501C4.07764 23.6501 4.84603 24.0186 5.41256 24.6745C5.9791 25.3304 6.29738 26.22 6.29738 27.1476ZM6.29738 15.4892C6.29738 16.4168 5.9791 17.3064 5.41256 17.9623C4.84603 18.6182 4.07764 18.9867 3.27643 18.9867C2.47523 18.9867 1.70684 18.6182 1.14031 17.9623C0.57377 17.3064 0.255493 16.4168 0.255493 15.4892C0.255493 14.5616 0.57377 13.672 1.14031 13.0161C1.70684 12.3602 2.47523 11.9917 3.27643 11.9917C4.07764 11.9917 4.84603 12.3602 5.41256 13.0161C5.9791 13.672 6.29738 14.5616 6.29738 15.4892ZM6.29738 3.83078C6.29738 4.75838 5.9791 5.64799 5.41256 6.3039C4.84603 6.95981 4.07764 7.3283 3.27643 7.3283C2.47523 7.3283 1.70684 6.95981 1.14031 6.3039C0.57377 5.64799 0.255493 4.75838 0.255493 3.83078C0.255493 2.90318 0.57377 2.01357 1.14031 1.35765C1.70684 0.70174 2.47523 0.333252 3.27643 0.333252C4.07764 0.333252 4.84603 0.70174 5.41256 1.35765C5.9791 2.01357 6.29738 2.90318 6.29738 3.83078Z" fill="#9747FF"/>
</svg>
