<svg width="26" height="31" viewBox="0 0 26 31" fill="none" xmlns="http://www.w3.org/2000/svg">
<path d="M8.23433 10.0735C6.72165 11.562 6.16761 14.2763 7.47306 16.4537C8.6998 18.4959 10.2313 20.2684 11.9956 21.6881C13.8762 23.1995 16.2207 22.558 17.5064 20.8067L17.5205 20.8148C19.1625 21.696 20.9054 22.299 22.6958 22.6053V26.9143H22.6901C11.4486 26.9322 2.94628 16.976 2.95896 4.07032V4.0638H6.68076V4.06543C6.9458 6.13829 7.46742 8.15567 8.22729 10.0555L8.23433 10.0718V10.0735ZM22.6958 30.1786H24.1056C24.4795 30.1786 24.838 30.0067 25.1024 29.7006C25.3668 29.3945 25.5153 28.9793 25.5153 28.5465V21.1984C25.5156 20.8069 25.3943 20.4282 25.1736 20.1316C24.9528 19.835 24.6473 19.6401 24.3128 19.5825L23.1088 19.3769C21.5858 19.1152 20.1032 18.6018 18.7061 17.8524L17.6446 17.2828C17.3465 17.1229 17.0095 17.0886 16.6919 17.1857C16.3743 17.2829 16.0959 17.5054 15.9049 17.8149L15.4242 18.5934C15.0027 19.2773 14.1977 19.4846 13.6042 19.0064C12.1161 17.8088 10.8243 16.3137 9.78931 14.5913C9.37625 13.9026 9.5567 12.9706 10.146 12.4842L10.8184 11.9293C11.0861 11.7081 11.2785 11.3855 11.3624 11.0174C11.4464 10.6493 11.4165 10.2588 11.278 9.91352L10.7846 8.68286C10.138 7.06528 9.69505 5.34872 9.4693 3.58557L9.29025 2.19169C9.24054 1.80439 9.07222 1.45069 8.81601 1.19511C8.5598 0.939531 8.23277 0.799101 7.89458 0.799439H1.54919C1.1753 0.799439 0.816716 0.9714 0.552332 1.27749C0.287949 1.58359 0.13942 1.99874 0.13942 2.43162V4.06543C0.125322 18.7665 9.88095 30.1999 22.6944 30.1786H22.6958Z" fill="#9747FF"/>
</svg>
