<svg width="40" height="45" viewBox="0 0 40 45" fill="none" xmlns="http://www.w3.org/2000/svg">
<path d="M10.6069 9.96533C9.32502 9.96533 8.0956 10.5549 7.18914 11.6044C6.28268 12.6538 5.77344 14.0772 5.77344 15.5614V29.5515C5.77344 31.0356 6.28268 32.459 7.18914 33.5085C8.0956 34.5579 9.32502 35.1475 10.6069 35.1475H22.6907C23.9726 35.1475 25.2021 34.5579 26.1085 33.5085C27.015 32.459 27.5242 31.0356 27.5242 29.5515V28.1525L31.8744 31.9298C32.1437 32.1636 32.4639 32.306 32.7991 32.341C33.1344 32.376 33.4714 32.3022 33.7725 32.1279C34.0736 31.9537 34.3268 31.6857 34.5038 31.3542C34.6807 31.0227 34.7745 30.6407 34.7745 30.251V14.8619C34.7745 14.4721 34.6807 14.0901 34.5038 13.7586C34.3268 13.4271 34.0736 13.1592 33.7725 12.9849C33.4714 12.8106 33.1344 12.7368 32.7991 12.7718C32.4639 12.8068 32.1437 12.9492 31.8744 13.1831L27.5242 16.9604V15.5614C27.5242 14.0772 27.015 12.6538 26.1085 11.6044C25.2021 10.5549 23.9726 9.96533 22.6907 9.96533H10.6069ZM27.5242 20.4579L32.3577 16.2609V28.852L27.5242 24.6549V20.4579ZM25.1075 15.5614V29.5515C25.1075 30.2936 24.8528 31.0052 24.3996 31.53C23.9464 32.0547 23.3317 32.3495 22.6907 32.3495H10.6069C9.96598 32.3495 9.35127 32.0547 8.89804 31.53C8.44481 31.0052 8.19019 30.2936 8.19019 29.5515V15.5614C8.19019 14.8193 8.44481 14.1076 8.89804 13.5829C9.35127 13.0581 9.96598 12.7634 10.6069 12.7634H22.6907C23.3317 12.7634 23.9464 13.0581 24.3996 13.5829C24.8528 14.1076 25.1075 14.8193 25.1075 15.5614Z" fill="#9747FF"/>
</svg>
