<svg width="22" height="22" viewBox="0 0 22 22" fill="none" xmlns="http://www.w3.org/2000/svg">
<path d="M7.96149 7.72993C9.89236 7.72993 11.4576 6.17859 11.4576 4.26493C11.4576 2.35126 9.89236 0.799927 7.96149 0.799927C6.03061 0.799927 4.46533 2.35126 4.46533 4.26493C4.46533 6.17859 6.03061 7.72993 7.96149 7.72993Z" stroke="#000001" stroke-linecap="round" stroke-linejoin="round"/>
<path d="M9.51543 10.2093C8.49081 9.97488 7.42598 9.97302 6.40053 10.2039C5.37509 10.4348 4.41557 10.8924 3.5937 11.5425C2.77184 12.1927 2.10889 13.0185 1.65443 13.9584C1.19997 14.8982 0.965746 15.9277 0.969278 16.9699V19.2799H7.18466" stroke="#000001" stroke-linecap="round" stroke-linejoin="round"/>
<path d="M20.3923 13.89H12.6231C12.194 13.89 11.8462 14.2348 11.8462 14.66V20.05C11.8462 20.4753 12.194 20.82 12.6231 20.82H20.3923C20.8214 20.82 21.1693 20.4753 21.1693 20.05V14.66C21.1693 14.2348 20.8214 13.89 20.3923 13.89Z" stroke="#000001" stroke-linecap="round" stroke-linejoin="round"/>
<path d="M13.3999 13.89V12.35C13.3999 11.5332 13.7273 10.7497 14.3101 10.1721C14.8929 9.59452 15.6834 9.27002 16.5076 9.27002C17.3318 9.27002 18.1223 9.59452 18.7051 10.1721C19.2879 10.7497 19.6153 11.5332 19.6153 12.35V13.89" stroke="#000001" stroke-linecap="round" stroke-linejoin="round"/>
</svg>
