<svg width="906" height="117" viewBox="0 0 906 117" fill="none" xmlns="http://www.w3.org/2000/svg">
<path d="M906 67.0001V7.85404C906 3.69199 902.626 0.317993 898.464 0.317993C894.302 0.317993 890.928 3.692 890.928 7.85404V39.7077C890.928 52.103 885.093 63.7754 875.178 71.2146L848.162 91.4855C839.506 97.9805 828.976 101.492 818.154 101.492H85.5481C74.0818 101.492 62.9639 97.5506 54.0575 90.3291L30.721 71.4072C21.3515 63.8101 15.9094 52.3913 15.9094 40.3288V8.27271C15.9094 3.87944 12.348 0.317993 7.95471 0.317993C3.56145 0.317993 0 3.87943 0 8.27269V67C0 94.6142 22.3858 117 50 117H856C883.614 117 906 94.6143 906 67.0001Z" fill="#F7DF1E"/>
</svg>
