<svg width="31" height="36" viewBox="0 0 31 36" fill="none" xmlns="http://www.w3.org/2000/svg">
<path d="M9.78552 6.77201C9.78552 5.00956 10.3902 3.31931 11.4667 2.07307C12.5431 0.826836 14.003 0.126709 15.5253 0.126709C17.0476 0.126709 18.5075 0.826836 19.584 2.07307C20.6604 3.31931 21.2651 5.00956 21.2651 6.77201V17.8475C21.2651 19.6099 20.6604 21.3002 19.584 22.5464C18.5075 23.7927 17.0476 24.4928 15.5253 24.4928C14.003 24.4928 12.5431 23.7927 11.4667 22.5464C10.3902 21.3002 9.78552 19.6099 9.78552 17.8475V6.77201Z" fill="white"/>
<path d="M6.91562 14.5249C7.16933 14.5249 7.41265 14.6416 7.59206 14.8493C7.77146 15.057 7.87225 15.3387 7.87225 15.6325V17.8476C7.87225 20.1975 8.67855 22.4512 10.1138 24.1128C11.549 25.7744 13.4956 26.7079 15.5253 26.7079C17.555 26.7079 19.5016 25.7744 20.9368 24.1128C22.3721 22.4512 23.1784 20.1975 23.1784 17.8476V15.6325C23.1784 15.3387 23.2791 15.057 23.4585 14.8493C23.6379 14.6416 23.8813 14.5249 24.135 14.5249C24.3887 14.5249 24.632 14.6416 24.8114 14.8493C24.9908 15.057 25.0916 15.3387 25.0916 15.6325V17.8476C25.0916 20.5932 24.2108 23.241 22.6199 25.2773C21.029 27.3136 18.8416 28.5931 16.4819 28.8677V33.3532H22.2217C22.4754 33.3532 22.7188 33.4699 22.8982 33.6776C23.0776 33.8853 23.1784 34.1671 23.1784 34.4608C23.1784 34.7545 23.0776 35.0362 22.8982 35.2439C22.7188 35.4517 22.4754 35.5683 22.2217 35.5683H8.82888C8.57516 35.5683 8.33184 35.4517 8.15244 35.2439C7.97304 35.0362 7.87225 34.7545 7.87225 34.4608C7.87225 34.1671 7.97304 33.8853 8.15244 33.6776C8.33184 33.4699 8.57516 33.3532 8.82888 33.3532H14.5687V28.8677C12.209 28.5931 10.0216 27.3136 8.43069 25.2773C6.83982 23.241 5.95895 20.5932 5.95898 17.8476V15.6325C5.95898 15.3387 6.05977 15.057 6.23918 14.8493C6.41858 14.6416 6.6619 14.5249 6.91562 14.5249Z" fill="white"/>
</svg>
