<svg width="27" height="28" viewBox="0 0 27 28" fill="none" xmlns="http://www.w3.org/2000/svg">
<path d="M15.7832 0.62257C16.2833 0.622524 16.7746 0.773751 17.2087 1.06127C17.6427 1.34878 18.0043 1.76261 18.2577 2.26174L19.2959 4.30997H21.9375C23.0367 4.30997 24.0909 4.81542 24.8683 5.71516C25.6457 6.61489 26.0826 7.83526 26.0829 9.10788V23.1368C26.0829 23.7671 25.9757 24.3912 25.7674 24.9735C25.5591 25.5558 25.2537 26.0848 24.8688 26.5305C24.4838 26.9762 24.0268 27.3297 23.5239 27.5709C23.021 27.8121 22.4819 27.9362 21.9375 27.9362H4.71816C3.61873 27.9362 2.56433 27.4306 1.78691 26.5305C1.0095 25.6305 0.572754 24.4097 0.572754 23.1368V9.10788C0.572754 7.835 1.0095 6.61426 1.78691 5.7142C2.56433 4.81414 3.61873 4.3085 4.71816 4.3085H7.37122L8.48729 2.20563C8.7439 1.72158 9.10341 1.32178 9.53147 1.04438C9.95954 0.766976 10.4419 0.621244 10.9324 0.621094H15.7832V0.62257ZM15.7832 2.83767H10.9324C10.7929 2.8378 10.655 2.8733 10.5285 2.94167C10.402 3.01003 10.29 3.10962 10.2003 3.23343L10.1174 3.36634L8.72326 5.99492C8.63777 6.15636 8.51796 6.28973 8.37526 6.38229C8.23257 6.47484 8.07176 6.52349 7.9082 6.52359H4.71943C4.4262 6.5234 4.1358 6.5901 3.86484 6.71989C3.59388 6.84967 3.34766 7.04 3.14025 7.27999C2.93284 7.51998 2.76831 7.80494 2.65605 8.11857C2.5438 8.43221 2.48602 8.76838 2.48602 9.10788V23.1368C2.48602 24.5634 3.48602 25.7211 4.71816 25.7211H21.9375C22.5295 25.7211 23.0973 25.4488 23.5159 24.9642C23.9345 24.4796 24.1697 23.8222 24.1697 23.1368V9.10788C24.1697 8.42248 23.9345 7.76516 23.5159 7.28051C23.0973 6.79587 22.5295 6.52359 21.9375 6.52359H18.7488C18.582 6.5237 18.4181 6.47333 18.2734 6.37748C18.1286 6.28164 18.008 6.14365 17.9235 5.9772L16.6072 3.38258C16.5228 3.21635 16.4024 3.0785 16.2579 2.98267C16.1134 2.88684 15.9497 2.83635 15.7832 2.83619V2.83767ZM13.3278 8.73869C14.8501 8.73869 16.3101 9.43882 17.3865 10.6851C18.4629 11.9313 19.0676 13.6215 19.0676 15.384C19.0676 17.1464 18.4629 18.8367 17.3865 20.0829C16.3101 21.3292 14.8501 22.0293 13.3278 22.0293C11.8056 22.0293 10.3456 21.3292 9.2692 20.0829C8.19278 18.8367 7.58805 17.1464 7.58805 15.384C7.58805 13.6215 8.19278 11.9313 9.2692 10.6851C10.3456 9.43882 11.8056 8.73869 13.3278 8.73869ZM13.3278 10.9538C12.8253 10.9538 12.3277 11.0684 11.8635 11.291C11.3992 11.5137 10.9774 11.84 10.6221 12.2514C10.2668 12.6627 9.98489 13.1511 9.79259 13.6886C9.60029 14.2261 9.50132 14.8022 9.50132 15.384C9.50132 15.9658 9.60029 16.5419 9.79259 17.0794C9.98489 17.6168 10.2668 18.1052 10.6221 18.5166C10.9774 18.928 11.3992 19.2543 11.8635 19.477C12.3277 19.6996 12.8253 19.8142 13.3278 19.8142C14.3427 19.8142 15.316 19.3474 16.0336 18.5166C16.7512 17.6858 17.1544 16.559 17.1544 15.384C17.1544 14.209 16.7512 13.0822 16.0336 12.2514C15.316 11.4205 14.3427 10.9538 13.3278 10.9538Z" fill="#333333"/>
</svg>
