<svg width="27" height="31" viewBox="0 0 27 31" fill="none" xmlns="http://www.w3.org/2000/svg">
<path d="M9.23217 10.0986C8.94508 10.0986 8.66974 10.2307 8.46673 10.4657C8.26372 10.7007 8.14967 11.0195 8.14967 11.3519C8.14967 11.6843 8.03562 12.0031 7.83261 12.2381C7.6296 12.4731 7.35426 12.6052 7.06717 12.6052C6.78007 12.6052 6.50473 12.4731 6.30172 12.2381C6.09871 12.0031 5.98466 11.6843 5.98466 11.3519C5.98466 10.3547 6.32681 9.3984 6.93584 8.6933C7.54486 7.98819 8.37088 7.59207 9.23217 7.59207C10.0935 7.59207 10.9195 7.98819 11.5285 8.6933C12.1375 9.3984 12.4797 10.3547 12.4797 11.3519C12.4797 11.6843 12.3656 12.0031 12.1626 12.2381C11.9596 12.4731 11.6843 12.6052 11.3972 12.6052C11.1101 12.6052 10.8347 12.4731 10.6317 12.2381C10.4287 12.0031 10.3147 11.6843 10.3147 11.3519C10.3147 11.0195 10.2006 10.7007 9.99762 10.4657C9.79461 10.2307 9.51927 10.0986 9.23217 10.0986ZM17.8922 10.0986C17.6051 10.0986 17.3298 10.2307 17.1268 10.4657C16.9237 10.7007 16.8097 11.0195 16.8097 11.3519C16.8097 11.6843 16.6957 12.0031 16.4926 12.2381C16.2896 12.4731 16.0143 12.6052 15.7272 12.6052C15.4401 12.6052 15.1648 12.4731 14.9618 12.2381C14.7587 12.0031 14.6447 11.6843 14.6447 11.3519C14.6447 10.3547 14.9868 9.3984 15.5959 8.6933C16.2049 7.98819 17.0309 7.59207 17.8922 7.59207C18.7535 7.59207 19.5795 7.98819 20.1885 8.6933C20.7976 9.3984 21.1397 10.3547 21.1397 11.3519C21.1397 11.6843 21.0257 12.0031 20.8227 12.2381C20.6197 12.4731 20.3443 12.6052 20.0572 12.6052C19.7701 12.6052 19.4948 12.4731 19.2918 12.2381C19.0888 12.0031 18.9747 11.6843 18.9747 11.3519C18.9747 11.0195 18.8607 10.7007 18.6577 10.4657C18.4546 10.2307 18.1793 10.0986 17.8922 10.0986ZM6.06044 15.1117C5.90549 15.1118 5.75235 15.1503 5.61138 15.2248C5.4704 15.2992 5.34487 15.4078 5.24328 15.5433C5.14168 15.6787 5.06638 15.8378 5.02247 16.0099C4.97856 16.1819 4.96707 16.3629 4.98876 16.5405C5.2829 18.9304 6.31197 21.1173 7.88695 22.6993C9.46193 24.2813 11.4771 25.1523 13.5622 25.1523C15.6473 25.1523 17.6625 24.2813 19.2374 22.6993C20.8124 21.1173 21.8415 18.9304 22.1356 16.5405C22.1573 16.3626 22.1458 16.1815 22.1018 16.0093C22.0577 15.8371 21.9822 15.6778 21.8804 15.5423C21.7786 15.4068 21.6528 15.2983 21.5115 15.224C21.3703 15.1497 21.2169 15.1114 21.0618 15.1117H6.06044ZM13.5622 22.6314C12.2186 22.6315 10.9081 22.1495 9.81083 21.2518C8.71361 20.354 7.88367 19.0846 7.43522 17.6183H19.6892C19.2407 19.0846 18.4108 20.354 17.3135 21.2518C16.2163 22.1495 14.9058 22.6315 13.5622 22.6314ZM26.5522 15.1117C26.5522 13.1367 26.2162 11.1811 25.5634 9.35643C24.9106 7.53177 23.9538 5.87385 22.7475 4.47731C21.5413 3.08078 20.1093 1.97299 18.5333 1.21719C16.9572 0.461392 15.2681 0.0723877 13.5622 0.0723877C11.8563 0.0723877 10.1671 0.461392 8.59111 1.21719C7.01509 1.97299 5.58308 3.08078 4.37684 4.47731C3.1706 5.87385 2.21376 7.53177 1.56095 9.35643C0.908141 11.1811 0.572144 13.1367 0.572144 15.1117C0.572144 19.1004 1.94073 22.9257 4.37684 25.7462C6.81295 28.5666 10.117 30.1511 13.5622 30.1511C17.0074 30.1511 20.3114 28.5666 22.7475 25.7462C25.1836 22.9257 26.5522 19.1004 26.5522 15.1117ZM2.73715 15.1117C2.73715 11.7878 3.87764 8.60007 5.90773 6.24972C7.93782 3.89936 10.6912 2.57895 13.5622 2.57895C16.4332 2.57895 19.1866 3.89936 21.2167 6.24972C23.2467 8.60007 24.3872 11.7878 24.3872 15.1117C24.3872 18.4356 23.2467 21.6234 21.2167 23.9738C19.1866 26.3241 16.4332 27.6445 13.5622 27.6445C10.6912 27.6445 7.93782 26.3241 5.90773 23.9738C3.87764 21.6234 2.73715 18.4356 2.73715 15.1117Z" fill="#333333"/>
</svg>
