<svg width="24" height="31" viewBox="0 0 24 31" fill="none" xmlns="http://www.w3.org/2000/svg">
<path d="M20.8618 3.51296C17.7493 -0.0905832 12.6807 -0.0905832 9.57148 3.51296L0.947633 13.4896C0.891462 13.5547 0.861725 13.6427 0.861725 13.7345C0.861725 13.8263 0.891462 13.9143 0.947633 13.9793L2.16687 15.3909C2.2226 15.4551 2.29804 15.4912 2.37668 15.4912C2.45532 15.4912 2.53076 15.4551 2.58649 15.3909L11.2103 5.41419C12.2809 4.17476 13.705 3.49383 15.2183 3.49383C16.7316 3.49383 18.1557 4.17476 19.2229 5.41419C20.2935 6.65363 20.8816 8.30238 20.8816 10.0506C20.8816 11.8026 20.2935 13.4476 19.2229 14.687L10.4339 24.8588L9.00977 26.5075C7.67819 28.0492 5.51397 28.0492 4.1824 26.5075C3.53809 25.7616 3.18455 24.7708 3.18455 23.715C3.18455 22.6592 3.53809 21.6684 4.1824 20.9224L12.9021 10.831C13.1234 10.5785 13.4142 10.437 13.7248 10.437H13.7281C14.0387 10.437 14.3262 10.5785 14.5442 10.831C14.7656 11.0873 14.8846 11.4239 14.8846 11.7835C14.8846 12.1393 14.7623 12.4759 14.5442 12.7284L7.41717 20.9722C7.361 21.0372 7.33126 21.1252 7.33126 21.217C7.33126 21.3088 7.361 21.3968 7.41717 21.4618L8.6364 22.8734C8.69213 22.9376 8.76757 22.9737 8.84621 22.9737C8.92486 22.9737 9.0003 22.9376 9.05603 22.8734L16.1798 14.6258C16.8373 13.8645 17.1975 12.8546 17.1975 11.7797C17.1975 10.7047 16.834 9.69101 16.1798 8.93358C14.8218 7.36133 12.6146 7.36515 11.2566 8.93358L10.4107 9.91671L2.54024 19.025C2.00606 19.6399 1.58262 20.3713 1.29449 21.1771C1.00635 21.9828 0.859257 22.8468 0.861725 23.7188C0.861725 25.49 1.45978 27.154 2.54024 28.405C3.66034 29.6979 5.12739 30.3444 6.59443 30.3444C8.06148 30.3444 9.52852 29.6979 10.6453 28.405L20.8618 16.5844C22.3652 14.84 23.1978 12.518 23.1978 10.0506C23.2011 7.57938 22.3685 5.25735 20.8618 3.51296Z" fill="#333333"/>
</svg>
